<?xml version="1.0" encoding="UTF-8" standalone="no"?><!DOCTYPE svg PUBLIC "-//W3C//DTD SVG 1.1//EN" "http://www.w3.org/Graphics/SVG/1.1/DTD/svg11.dtd"><svg width="100%" height="100%" viewBox="0 0 46 46" version="1.1" xmlns="http://www.w3.org/2000/svg" xmlns:xlink="http://www.w3.org/1999/xlink" xml:space="preserve" xmlns:serif="http://www.serif.com/" style="fill-rule:evenodd;clip-rule:evenodd;stroke-linejoin:round;stroke-miterlimit:1.41421;"><circle cx="23" cy="23" r="23" style="fill:#fbb615;fill-opacity:0.13;"/><path d="M27.347,17.148l2.34,-2.33l-1.63,3.03l-0.71,-0.7Zm-12.73,-1.63l3,1.63l-0.71,0.7l-2.29,-2.33Zm7.42,-2.94l1,2.8l-1,0l0,-2.8Zm7.84,9.61l3.31,1l-3.34,0l0,-1l0.03,0Zm-18.03,1l3.34,-1l0,1l-3.34,0Zm13.27,4.58l-5.23,0c-1.895,-0.978 -3.09,-2.94 -3.09,-5.073c0,-3.133 2.577,-5.71 5.71,-5.71c3.132,0 5.71,2.577 5.71,5.71c0,0.001 0,0.002 0,0.003c-0.001,2.135 -1.201,4.097 -3.1,5.07m-4.23,-0.62c0.963,-0.335 5.016,-1.023 5.57,-1.88c1.21,-1.862 0.95,-4.339 -0.62,-5.91c-0.883,-0.871 -2.076,-1.361 -3.316,-1.361c-2.59,0 -4.72,2.131 -4.72,4.72c0,0.897 0.255,1.775 0.736,2.531c0.564,0.864 2.35,1.9 2.35,1.9Z" style="fill:#fb2215;fill-rule:nonzero;"/></svg>